<?xml version="1.0" encoding="UTF-8" standalone="no"?>
<svg width="85px" height="85px" viewBox="0 0 85 85" version="1.1" xmlns="http://www.w3.org/2000/svg" xmlns:xlink="http://www.w3.org/1999/xlink">
    <!-- Generator: Sketch 43.2 (39069) - http://www.bohemiancoding.com/sketch -->
    <title>icon</title>
    <desc>Created with Sketch.</desc>
    <defs></defs>
    <g id="Page-1" stroke="none" stroke-width="1" fill="none" fill-rule="evenodd">
        <path d="M66.6826852,112.349116 L66.6826852,87.1825114 C66.6826852,81.0322748 65.7844466,76 59.9701341,76 L25.8028501,76 C19.9875872,76 19,81.0332394 19,87.1825114 L19,112.349116 L66.6826852,112.349116 Z" id="Shape" fill="#B1650F" fill-rule="nonzero"></path>
        <path d="M33.2195694,67 L52.5787491,67 C52.6604936,67.2334312 52.7336834,67.4697562 52.7983185,67.7089749 L52.7983185,76.099958 L42.8996345,86.4017972 L33,76.099958 L33,67.7089749 C33.0646352,67.4697562 33.137825,67.2334312 33.2195694,67 L33.2195694,67 Z" id="Shape" fill="#EFCC8E" fill-rule="nonzero"></path>
        <path d="M33,69.9101731 L44.0041353,67 L52.5787491,67 C52.6604936,67.2324666 52.7336834,67.4697562 52.7983185,67.7089749 L52.7983185,76.099958 C52.2175526,78.1747947 45.7568886,83.8523814 45.6808473,83.8707086 L33,69.9101731 L33,69.9101731 Z" id="Shape" fill="#CC9A61" fill-rule="nonzero"></path>
        <path d="M43.1371011,13 C37.4501579,13.1253969 20.313287,13.6800371 20.0148246,33.9557544 C19.7163623,54.2314717 23.9927383,61.6665444 26.6922065,64.6982561 C29.3916748,67.7299678 32.1957,70.4742311 37.7343625,71.9307646 C39.1810494,73.3998377 40.7075797,73.9621947 43.1371011,74.2805099 L43.1371011,13 L43.1371011,13 Z" id="Shape" fill="#EFCC8E" fill-rule="nonzero"></path>
        <path d="M43,13 C48.6878937,13.1253969 65.8238141,13.6800371 66.1222765,33.9557544 C66.4216893,54.2314717 62.1453134,61.6665444 59.4458451,64.6982561 C56.7454263,67.7299678 53.9414012,70.4742311 48.4027386,71.9307646 C46.9570023,73.3998377 45.4295214,73.9621947 43,74.2805099 C43,53.755928 43,33.5245819 43,13 L43,13 Z" id="Shape" fill="#EAB56C" fill-rule="nonzero"></path>
        <path d="M41.2303309,23.6632072 C35.8161861,25.8316093 26.1757854,26.7338568 26.1757854,26.7338568 L23.8886756,46.4192226 L18.1133343,42.6042624 C17.5384071,34.3889869 19.1501452,26.8451291 22.9650049,20.9963362 C23.8213283,19.6834548 22.8101488,14.6059323 23.8886756,13.4754472 C24.5707215,12.7605437 26.1536456,14.8449811 28.0771801,14.9676134 C30.0007146,15.0902458 29.3982458,11.7255445 30.1804222,11.2760987 C31.8900891,10.2937083 32.2699388,11.724889 34.2093872,11.2760987 C35.0005816,11.0930155 33.878019,5.56994075 35.1300545,5.04190185 C36.38209,4.51386296 39.8509136,9.15060533 41.6640557,9.16693824 C43.0184827,9.17913902 44.5526265,5.58410846 45.7162084,5.63528468 C46.2116626,5.65707555 47.9563185,9.99711673 50.8779515,12.1524319 C51.7822556,12.8195452 51.4201829,7.40804223 52.7242278,8.00649355 C53.7050807,8.45662584 57.8288029,11.2360416 59.9435978,13.8780031 C62.0583927,16.5199645 60.9083817,17.2278768 61.0529397,17.4544634 C68.9707463,24.3069227 68.2996813,32.6371365 67.613408,42.557962 L61.8390173,46.4192226 C62.2030653,42.2975223 61.0120675,27.5749594 58.3202033,22.8909021 C57.323111,21.1546371 46.6435252,21.4938405 41.2303309,23.6632072 Z" id="Shape" fill="#3F1B0B" fill-rule="nonzero"></path>
        <path d="M22.4330574,44.7132783 C21.9197782,43.3628499 21.2895854,42.422373 19.6394879,42.0702971 C17.9893904,41.7182211 14.9924103,42.5718847 15.0000144,47.3186404 C15.0066681,52.0653961 18.9066393,56.145619 21.3741814,55.5813328 C23.8417236,55.0151175 22.6687856,45.9797872 22.4330574,44.7132783 L22.4330574,44.7132783 Z" id="Shape" fill="#EFCC8E" fill-rule="nonzero"></path>
        <path d="M21.3752414,45.6725299 C20.9598655,44.8921752 20.4541904,44.2574738 19.449494,44.0433345 C18.445748,43.8291951 16.9952591,44.3356058 17.0000116,47.2235933 C17.0038137,50.1125454 19.004652,52.6089087 20.5055183,52.2645494 C20.9807768,52.1555506 21.242169,51.4533278 21.3780929,50.5466116 C20.4684482,50.2745968 19.90194,49.1932895 20.0920434,48.0270982 C20.2336705,47.1531781 20.764059,46.463495 21.4189652,46.189551 C21.3952022,45.8673774 21.3752414,45.6725299 21.3752414,45.6725299 L21.3752414,45.6725299 Z" id="Shape" fill="#EAB56C" fill-rule="nonzero"></path>
        <path d="M62.2167773,44.7480036 C62.898298,43.4650966 63.7309508,42.422373 65.3800978,42.0702971 C67.0311459,41.7182211 70.0271754,42.5718847 70.0205218,47.3186404 C70.0138682,52.0653961 66.1129464,56.145619 63.6454043,55.5813328 C61.1788127,55.0151175 62.2167773,44.7480036 62.2167773,44.7480036 L62.2167773,44.7480036 Z" id="Shape" fill="#EAB56C" fill-rule="nonzero"></path>
        <path d="M64.0437238,45.6725299 C64.4581492,44.8921752 64.9647748,44.2574738 65.9694712,44.0433345 C66.9732172,43.8291951 68.4227556,44.3356058 68.4189535,47.2235933 C68.4151515,50.1125454 66.4152637,52.6089087 64.9134468,52.2645494 C64.4381883,52.1555506 64.1767962,51.4533278 64.0408722,50.5466116 C64.9495665,50.2745968 65.5170251,49.1932895 65.3269217,48.0270982 C65.1843442,47.1531781 64.6549062,46.463495 64,46.189551 C64.0237629,45.8673774 64.0437238,45.6725299 64.0437238,45.6725299 L64.0437238,45.6725299 Z" id="Shape" fill="#CC9A61" fill-rule="nonzero"></path>
        <path d="M31.8915288,46.8371457 C32.9323449,46.8371457 33.7821071,45.9757654 33.7821071,44.9185729 C33.7821071,43.8613804 32.9323449,43 31.8915288,43 C30.8497622,43 30,43.8613804 30,44.9185729 C30,45.9757654 30.8497622,46.8371457 31.8915288,46.8371457 L31.8915288,46.8371457 Z" id="Shape" fill="#3F1B0B" fill-rule="nonzero"></path>
        <path d="M53.8915288,46.8371457 C54.9323449,46.8371457 55.7821071,45.9757654 55.7821071,44.9185729 C55.7821071,43.8613804 54.9323449,43 53.8915288,43 C52.8497622,43 52,43.8613804 52,44.9185729 C52,45.9757654 52.8497622,46.8371457 53.8915288,46.8371457 L53.8915288,46.8371457 Z" id="Shape" fill="#3F1B0B" fill-rule="nonzero"></path>
        <path d="M28.3012578,38.6400874 L33.962537,38.6400874 C34.6782763,38.6400874 35.2628443,38.045899 35.2628443,37.320526 L35.2628443,37.320526 C35.2628443,36.5941885 34.6782763,36 33.962537,36 L28.3012578,36 C27.5855185,36 27,36.5941885 27,37.320526 L27,37.320526 C27,38.045899 27.5855185,38.6400874 28.3012578,38.6400874 L28.3012578,38.6400874 Z" id="Shape" fill="#3F1B0B" fill-rule="nonzero"></path>
        <path d="M51.3003073,38.6400874 L56.962537,38.6400874 C57.6773258,38.6400874 58.2618937,38.045899 58.2618937,37.320526 L58.2618937,37.320526 C58.2618937,36.5941885 57.6773258,36 56.962537,36 L51.3003073,36 C50.584568,36 50,36.5941885 50,37.320526 L50,37.320526 C50,38.045899 50.584568,38.6400874 51.3003073,38.6400874 L51.3003073,38.6400874 Z" id="Shape" fill="#3F1B0B" fill-rule="nonzero"></path>
        <path d="M46.7428553,56 C46.7428553,58.4500629 44.7857408,60.4361572 42.3714277,60.4361572 C39.956164,60.4361572 38,58.4500629 38,56 L46.7428553,56 L46.7428553,56 Z" id="Shape" fill="#FFFFFF" fill-rule="nonzero"></path>
        <polygon id="Shape" fill="#C47C2C" fill-rule="nonzero" points="43.0412054 86.3008746 37.0082741 88.4027199 32 76 33.1415709 76"></polygon>
        <path d="M18.2142958,114.668731 L24.9124441,76.1993975 C15.5679115,74.5740605 12.8458241,83.2933315 11.9219216,87.5404287 L10,113.833133 L18.2142958,114.668731 Z" id="Shape" fill="#B1650F" fill-rule="nonzero"></path>
        <path d="M66.8865628,115.504207 L60,76.1943608 C69.3445326,74.5690238 73.6617808,83.5493724 74.5809307,87.7983988 L79.30982,113.154462 L66.8865628,115.504207 Z" id="Shape" fill="#B1650F" fill-rule="nonzero"></path>
        <polygon id="Shape" fill="#C47C2C" fill-rule="nonzero" points="43 86.3008746 49.0329314 88.4027199 54.0412054 76 52.900585 76"></polygon>
        <ellipse id="Oval" stroke="#272727" stroke-width="2" cx="32.2011239" cy="44.3327099" rx="7.2011239" ry="7.3327099"></ellipse>
        <ellipse id="Oval" stroke="#272727" stroke-width="2" cx="53.2011239" cy="44.3327099" rx="7.2011239" ry="7.3327099"></ellipse>
        <path d="M39.144043,44.4152832 C40.2810025,44.4152832 40.6246151,43 43.3006751,43 C45.9767352,43 46.4593595,44.4217132 45.6801758,44.8610467" id="Path-2" stroke="#272727" stroke-width="2"></path>
        <path d="M23.8959583,80.1228145 C23.8959583,80.1228145 23.0513163,79.2321597 21.3616523,82.247845 C19.6719882,85.2635303 24.593111,84.0206391 22.0671678,86.2269549 C19.5412246,88.4332707 28.8296252,91.013886 27.5752065,89.3277963 C26.3207877,87.6417065 23.7944644,87.2712777 26.3207877,86.4456511 C28.8471111,85.6200245 31.2761219,84.6175056 29.7932469,84.0368962 C28.3103719,83.4562867 27.7401816,81.8429667 27.0304846,80.5396921 C26.3207877,79.2364175 23.8959583,80.1228145 23.8959583,80.1228145 Z" id="Path-3-Copy" fill="#B1970F"></path>
    </g>
</svg>